<?xml version="1.0" encoding="UTF-8" standalone="no"?>
<!-- Created with Inkscape (http://www.inkscape.org/) -->

<svg
   xmlns:dc="http://purl.org/dc/elements/1.1/"
   xmlns:cc="http://creativecommons.org/ns#"
   xmlns:rdf="http://www.w3.org/1999/02/22-rdf-syntax-ns#"
   xmlns:svg="http://www.w3.org/2000/svg"
   xmlns="http://www.w3.org/2000/svg"
   xmlns:sodipodi="http://sodipodi.sourceforge.net/DTD/sodipodi-0.dtd"
   xmlns:inkscape="http://www.inkscape.org/namespaces/inkscape"
   width="123.81738"
   height="126.07925"
   id="svg2"
   version="1.1"
   inkscape:version="0.48.4 r9939"
   sodipodi:docname="forgetmenotlogo1.svg">
  <defs
     id="defs4" />
  <sodipodi:namedview
     id="base"
     pagecolor="#ffffff"
     bordercolor="#666666"
     borderopacity="1.0"
     inkscape:pageopacity="0.0"
     inkscape:pageshadow="2"
     inkscape:zoom="0.49497475"
     inkscape:cx="680.77428"
     inkscape:cy="188.47826"
     inkscape:document-units="px"
     inkscape:current-layer="layer1"
     showgrid="false"
     inkscape:window-width="1536"
     inkscape:window-height="803"
     inkscape:window-x="-8"
     inkscape:window-y="-8"
     inkscape:window-maximized="1"
     fit-margin-top="0"
     fit-margin-left="0"
     fit-margin-right="0"
     fit-margin-bottom="0" />
  <metadata
     id="metadata7">
    <rdf:RDF>
      <cc:Work
         rdf:about="">
        <dc:format>image/svg+xml</dc:format>
        <dc:type
           rdf:resource="http://purl.org/dc/dcmitype/StillImage" />
        <dc:title></dc:title>
      </cc:Work>
    </rdf:RDF>
  </metadata>
  <g
     inkscape:label="Layer 1"
     inkscape:groupmode="layer"
     id="layer1"
     transform="translate(-207.69584,-484.13983)">
    <g
       id="g3805"
       transform="matrix(0.83886329,0,0,1,70.003938,-5.0507628)"
       style="stroke-width:8.73462757;stroke-miterlimit:4;stroke-dasharray:none">
      <path
         style="fill:#ffffff;fill-opacity:1;stroke:#000000;stroke-width:8.73462757;stroke-linecap:butt;stroke-linejoin:miter;stroke-miterlimit:4;stroke-opacity:1;stroke-dasharray:none"
         d="M 573.86316,609.56399 475.9996,538.25789 373.98892,611.83658"
         id="path3803"
         inkscape:connector-curvature="0"
         sodipodi:nodetypes="ccc" />
      <path
         sodipodi:nodetypes="ccc"
         inkscape:connector-curvature="0"
         id="path3801"
         d="M 573.86316,489.51778 475.9996,560.82388 373.98892,487.24519"
         style="fill:#ffffff;fill-opacity:1;stroke:#000000;stroke-width:8.73462757;stroke-linecap:butt;stroke-linejoin:miter;stroke-miterlimit:4;stroke-opacity:1;stroke-dasharray:none" />
      <rect
         y="486.84323"
         x="375.24393"
         height="125.53341"
         width="197.25424"
         id="rect3799"
         style="fill:#ffffff;fill-opacity:0;stroke:#000000;stroke-width:8.73462757;stroke-linecap:square;stroke-linejoin:miter;stroke-miterlimit:4;stroke-opacity:1;stroke-dasharray:none;stroke-dashoffset:0" />
    </g>
    <g
       id="g3810"
       transform="matrix(0.97255815,0.76672464,-0.76672464,0.97255815,560.30375,-230.50236)"
       style="fill:#ffffff;fill-opacity:1;stroke:#001a6d;stroke-opacity:1;stroke-width:6.45973463;stroke-miterlimit:4;stroke-dasharray:none">
      <path
         transform="matrix(0.38512452,0,0,0.38512452,131.15128,332.80152)"
         d="m 386.42856,550.75507 c 0,10.15809 -8.23476,18.39285 -18.39285,18.39285 -10.1581,0 -18.39286,-8.23476 -18.39286,-18.39285 0,-10.1581 8.23476,-18.39286 18.39286,-18.39286 10.15809,0 18.39285,8.23476 18.39285,18.39286 z"
         sodipodi:ry="18.392857"
         sodipodi:rx="18.392857"
         sodipodi:cy="550.75507"
         sodipodi:cx="368.03571"
         id="path3771"
         style="fill:#ffffff;fill-opacity:1;stroke:#001a6d;stroke-width:16.7731066;stroke-linecap:square;stroke-linejoin:miter;stroke-miterlimit:4;stroke-opacity:1;stroke-dasharray:none;stroke-dashoffset:0"
         sodipodi:type="arc" />
      <g
         style="fill:#ffffff;fill-opacity:1;stroke-width:6.45973463;stroke-miterlimit:4;stroke-dasharray:none;stroke:#001a6d;stroke-opacity:1"
         id="g3792">
        <path
           style="fill:#ffffff;fill-opacity:1;stroke:#001a6d;stroke-width:6.45973463;stroke-linecap:square;stroke-linejoin:miter;stroke-miterlimit:4;stroke-opacity:1;stroke-dasharray:none;stroke-dashoffset:0"
           d="m 265.79031,547.11322 c 1.5478,10.03948 -24.82564,21.35348 -34.86512,22.90128 -8.2929,1.27854 -13.67558,-3.57676 -16.16982,-10.96327 -0.52531,-1.55567 -4.27574,-2.70666 -4.54502,-4.45324 -0.25647,-1.66357 2.97244,-3.81105 2.98917,-5.38082 0.0843,-7.90364 3.74467,-14.26751 12.12058,-15.55884 10.03948,-1.5478 38.92241,3.41541 40.47021,13.45489 z"
           id="path3773"
           inkscape:connector-curvature="0"
           sodipodi:nodetypes="sssssss"
           inkscape:transform-center-x="35.333566"
           inkscape:transform-center-y="6.9370784" />
        <path
           inkscape:transform-center-x="17.713408"
           sodipodi:nodetypes="sssssss"
           inkscape:connector-curvature="0"
           id="path3784"
           d="m 269.12904,538.19425 c -9.23657,4.22759 -27.31545,-18.05961 -31.54305,-27.29618 -3.49211,-7.62968 -0.28918,-14.13263 6.13687,-18.54711 1.35339,-0.92974 1.43772,-4.8519 3.04462,-5.58738 1.53053,-0.70053 4.47733,1.82017 5.99213,1.40808 7.62691,-2.07482 14.74791,-0.28911 18.27498,7.41694 4.22759,9.23657 7.33103,38.37805 -1.90555,42.60565 z"
           style="fill:#ffffff;fill-opacity:1;stroke:#001a6d;stroke-width:6.45973463;stroke-linecap:square;stroke-linejoin:miter;stroke-miterlimit:4;stroke-opacity:1;stroke-dasharray:none;stroke-dashoffset:0"
           inkscape:transform-center-y="-32.18135" />
        <path
           inkscape:transform-center-y="-25.077442"
           style="fill:#ffffff;fill-opacity:1;stroke:#001a6d;stroke-width:6.45973463;stroke-linecap:square;stroke-linejoin:miter;stroke-miterlimit:4;stroke-opacity:1;stroke-dasharray:none;stroke-dashoffset:0"
           d="m 278.65693,539.00627 c -6.53866,-7.77384 10.11725,-31.14361 17.8911,-37.68228 6.42142,-5.40112 13.5432,-4.04926 19.51212,0.96607 1.25713,1.05628 5.05962,0.0911 6.19715,1.44355 1.08349,1.28815 -0.55965,4.80065 0.24166,6.15061 4.03447,6.79689 4.21336,14.13619 -2.27234,19.59138 -7.77385,6.53865 -35.03102,17.30453 -41.56969,9.53067 z"
           id="path3786"
           inkscape:connector-curvature="0"
           sodipodi:nodetypes="sssssss"
           inkscape:transform-center-x="-27.898409" />
        <path
           inkscape:transform-center-x="-31.023446"
           sodipodi:nodetypes="sssssss"
           inkscape:connector-curvature="0"
           id="path3788"
           d="m 280.63146,547.93996 c 5.19184,-8.73106 32.73857,-0.68476 41.46965,4.50708 7.21211,4.28862 8.27694,11.45893 5.50293,18.74497 -0.58423,1.53453 1.57747,4.8083 0.67423,6.32724 -0.8603,1.44677 -4.71776,1.04985 -5.72921,2.25045 -5.09255,6.04489 -11.965,8.62688 -19.24931,4.29534 -8.73106,-5.19184 -27.86014,-27.394 -22.66829,-36.12508 z"
           style="fill:#ffffff;fill-opacity:1;stroke:#001a6d;stroke-width:6.45973463;stroke-linecap:square;stroke-linejoin:miter;stroke-miterlimit:4;stroke-opacity:1;stroke-dasharray:none;stroke-dashoffset:0"
           inkscape:transform-center-y="20.282887" />
        <path
           inkscape:transform-center-y="35.325287"
           style="fill:#ffffff;fill-opacity:1;stroke:#001a6d;stroke-width:6.45973463;stroke-linecap:square;stroke-linejoin:miter;stroke-miterlimit:4;stroke-opacity:1;stroke-dasharray:none;stroke-dashoffset:0"
           d="m 272.99312,552.75034 c 9.98941,1.8435 11.99054,30.47147 10.14705,40.46089 -1.52279,8.25154 -7.87944,11.7358 -15.67532,11.65935 -1.6419,-0.0161 -3.96338,3.14638 -5.70125,2.82566 -1.65528,-0.30547 -2.62009,-4.06136 -4.09685,-4.59394 -7.43535,-2.68147 -12.23947,-8.23284 -10.70145,-16.56697 1.84349,-9.98941 16.0384,-35.62848 26.02782,-33.78499 z"
           id="path3790"
           inkscape:connector-curvature="0"
           sodipodi:nodetypes="sssssss"
           inkscape:transform-center-x="8.1425775" />
      </g>
    </g>
    <text
       xml:space="preserve"
       style="font-size:26.87908173px;font-style:normal;font-variant:normal;font-weight:normal;font-stretch:normal;line-height:125%;letter-spacing:0px;word-spacing:0px;fill:#000000;fill-opacity:1;stroke:none;font-family:Arial;-inkscape-font-specification:Arial"
       x="540.57922"
       y="612.71094"
       id="text3819"
       sodipodi:linespacing="125%"><tspan
         sodipodi:role="line"
         id="tspan3821"
         x="540.57922"
         y="612.71094"
         style="font-size:193.52938843px;font-style:normal;font-variant:normal;font-weight:normal;font-stretch:normal;font-family:Ubuntu;-inkscape-font-specification:Ubuntu">LastMail</tspan></text>
  </g>
</svg>
