<?xml version="1.0" encoding="UTF-8" standalone="no"?>
<!-- Created with Inkscape (http://www.inkscape.org/) -->

<svg
   xmlns:dc="http://purl.org/dc/elements/1.1/"
   xmlns:cc="http://creativecommons.org/ns#"
   xmlns:rdf="http://www.w3.org/1999/02/22-rdf-syntax-ns#"
   xmlns:svg="http://www.w3.org/2000/svg"
   xmlns="http://www.w3.org/2000/svg"
   xmlns:xlink="http://www.w3.org/1999/xlink"
   xmlns:sodipodi="http://sodipodi.sourceforge.net/DTD/sodipodi-0.dtd"
   xmlns:inkscape="http://www.inkscape.org/namespaces/inkscape"
   width="485.90207"
   height="100.00747"
   id="svg2"
   version="1.1"
   inkscape:version="0.48.4 r9939"
   sodipodi:docname="forgetmenotlogo4-patherized.svg"
   inkscape:export-filename="C:\Webserver\xampp\htdocs\lastmail\images\forgetmenotlogo4.png"
   inkscape:export-xdpi="90"
   inkscape:export-ydpi="90">
  <defs
     id="defs4">
    <linearGradient
       id="linearGradient3871">
      <stop
         style="stop-color:#000000;stop-opacity:1;"
         offset="0"
         id="stop3873" />
      <stop
         style="stop-color:#000000;stop-opacity:1;"
         offset="1"
         id="stop3875" />
    </linearGradient>
    <linearGradient
       id="linearGradient3849">
      <stop
         style="stop-color:#ffffff;stop-opacity:1;"
         offset="0"
         id="stop3851" />
      <stop
         style="stop-color:#ffffff;stop-opacity:1;"
         offset="1"
         id="stop3853" />
    </linearGradient>
    <linearGradient
       inkscape:collect="always"
       id="linearGradient3841">
      <stop
         style="stop-color:#ffffff;stop-opacity:1;"
         offset="0"
         id="stop3843" />
      <stop
         style="stop-color:#ffffff;stop-opacity:0;"
         offset="1"
         id="stop3845" />
    </linearGradient>
    <linearGradient
       id="linearGradient3831">
      <stop
         style="stop-color:#ffffff;stop-opacity:1;"
         offset="0"
         id="stop3833" />
      <stop
         id="stop3839"
         offset="0.5"
         style="stop-color:#6d50ff;stop-opacity:1;" />
      <stop
         style="stop-color:#00066d;stop-opacity:1;"
         offset="1"
         id="stop3835" />
    </linearGradient>
    <radialGradient
       inkscape:collect="always"
       xlink:href="#linearGradient3831"
       id="radialGradient3837"
       cx="269.60452"
       cy="547.17944"
       fx="269.60452"
       fy="547.17944"
       r="62.638557"
       gradientTransform="matrix(0.83661237,-0.12131473,0.12350507,0.8517174,-23.529389,113.84421)"
       gradientUnits="userSpaceOnUse" />
    <radialGradient
       inkscape:collect="always"
       xlink:href="#linearGradient3831"
       id="radialGradient3867"
       gradientUnits="userSpaceOnUse"
       gradientTransform="matrix(0.83661237,-0.12131473,0.12350507,0.8517174,-23.529389,113.84421)"
       cx="269.60452"
       cy="547.17944"
       fx="269.60452"
       fy="547.17944"
       r="62.638557" />
    <radialGradient
       inkscape:collect="always"
       xlink:href="#linearGradient3871"
       id="radialGradient3877"
       cx="473.92603"
       cy="549.60992"
       fx="473.92603"
       fy="549.60992"
       r="105.39626"
       gradientTransform="matrix(1,0,0,0.64732701,0,193.83258)"
       gradientUnits="userSpaceOnUse" />
    <radialGradient
       inkscape:collect="always"
       xlink:href="#linearGradient3871"
       id="radialGradient3905"
       gradientUnits="userSpaceOnUse"
       gradientTransform="matrix(1,0,0,0.64732701,0,193.83258)"
       cx="473.92603"
       cy="549.60992"
       fx="473.92603"
       fy="549.60992"
       r="105.39626" />
    <radialGradient
       inkscape:collect="always"
       xlink:href="#linearGradient3871-1"
       id="radialGradient4199-3"
       gradientUnits="userSpaceOnUse"
       gradientTransform="matrix(1,0,0,0.64732701,297.17085,193.83258)"
       cx="473.92603"
       cy="549.60992"
       fx="473.92603"
       fy="549.60992"
       r="105.39626" />
    <linearGradient
       id="linearGradient3871-1">
      <stop
         style="stop-color:#000000;stop-opacity:1;"
         offset="0"
         id="stop3873-6" />
      <stop
         style="stop-color:#000000;stop-opacity:1;"
         offset="1"
         id="stop3875-8" />
    </linearGradient>
    <radialGradient
       inkscape:collect="always"
       xlink:href="#linearGradient3871-1"
       id="radialGradient4258"
       gradientUnits="userSpaceOnUse"
       gradientTransform="matrix(0.83886076,0,0,0.64732506,92.456633,383.54164)"
       cx="473.92603"
       cy="549.60992"
       fx="473.92603"
       fy="549.60992"
       r="105.39626" />
    <radialGradient
       inkscape:collect="always"
       xlink:href="#linearGradient3831"
       id="radialGradient4260"
       gradientUnits="userSpaceOnUse"
       gradientTransform="matrix(0.83661237,-0.12131473,0.12350507,0.8517174,-23.529389,113.84421)"
       cx="269.60452"
       cy="547.17944"
       fx="269.60452"
       fy="547.17944"
       r="62.638557" />
    <radialGradient
       inkscape:collect="always"
       xlink:href="#linearGradient3831"
       id="radialGradient4262"
       gradientUnits="userSpaceOnUse"
       gradientTransform="matrix(0.83661237,-0.12131473,0.12350507,0.8517174,-23.529389,113.84421)"
       cx="269.60452"
       cy="547.17944"
       fx="269.60452"
       fy="547.17944"
       r="62.638557" />
    <radialGradient
       inkscape:collect="always"
       xlink:href="#linearGradient3831"
       id="radialGradient4264"
       gradientUnits="userSpaceOnUse"
       gradientTransform="matrix(0.83661237,-0.12131473,0.12350507,0.8517174,-23.529389,113.84421)"
       cx="269.60452"
       cy="547.17944"
       fx="269.60452"
       fy="547.17944"
       r="62.638557" />
    <radialGradient
       inkscape:collect="always"
       xlink:href="#linearGradient3831"
       id="radialGradient4266"
       gradientUnits="userSpaceOnUse"
       gradientTransform="matrix(0.83661237,-0.12131473,0.12350507,0.8517174,-23.529389,113.84421)"
       cx="269.60452"
       cy="547.17944"
       fx="269.60452"
       fy="547.17944"
       r="62.638557" />
    <radialGradient
       inkscape:collect="always"
       xlink:href="#linearGradient3831"
       id="radialGradient4268"
       gradientUnits="userSpaceOnUse"
       gradientTransform="matrix(0.83661237,-0.12131473,0.12350507,0.8517174,-23.529389,113.84421)"
       cx="269.60452"
       cy="547.17944"
       fx="269.60452"
       fy="547.17944"
       r="62.638557" />
    <radialGradient
       inkscape:collect="always"
       xlink:href="#linearGradient3831"
       id="radialGradient4270"
       gradientUnits="userSpaceOnUse"
       gradientTransform="matrix(0.83661237,-0.12131473,0.12350507,0.8517174,-23.529389,113.84421)"
       cx="269.60452"
       cy="547.17944"
       fx="269.60452"
       fy="547.17944"
       r="62.638557" />
    <radialGradient
       inkscape:collect="always"
       xlink:href="#linearGradient3849"
       id="radialGradient4272"
       gradientUnits="userSpaceOnUse"
       cx="368.03571"
       cy="550.75507"
       fx="368.03571"
       fy="550.75507"
       r="26.779409" />
    <radialGradient
       inkscape:collect="always"
       xlink:href="#linearGradient3841"
       id="radialGradient4274"
       gradientUnits="userSpaceOnUse"
       cx="368.03571"
       cy="550.75507"
       fx="368.03571"
       fy="550.75507"
       r="26.779409" />
    <radialGradient
       inkscape:collect="always"
       xlink:href="#linearGradient3831"
       id="radialGradient4276"
       gradientUnits="userSpaceOnUse"
       gradientTransform="matrix(0.83661237,-0.12131473,0.12350507,0.8517174,-23.529389,113.84421)"
       cx="269.60452"
       cy="547.17944"
       fx="269.60452"
       fy="547.17944"
       r="62.638557" />
    <radialGradient
       inkscape:collect="always"
       xlink:href="#linearGradient3871-1"
       id="radialGradient4384"
       gradientUnits="userSpaceOnUse"
       gradientTransform="matrix(0.83886076,0,0,0.64732506,92.456633,383.54164)"
       cx="473.92603"
       cy="549.60992"
       fx="473.92603"
       fy="549.60992"
       r="105.39626" />
    <radialGradient
       inkscape:collect="always"
       xlink:href="#linearGradient3831"
       id="radialGradient4386"
       gradientUnits="userSpaceOnUse"
       gradientTransform="matrix(0.83661237,-0.12131473,0.12350507,0.8517174,-23.529389,113.84421)"
       cx="269.60452"
       cy="547.17944"
       fx="269.60452"
       fy="547.17944"
       r="62.638557" />
    <radialGradient
       inkscape:collect="always"
       xlink:href="#linearGradient3831"
       id="radialGradient4388"
       gradientUnits="userSpaceOnUse"
       gradientTransform="matrix(0.83661237,-0.12131473,0.12350507,0.8517174,-23.529389,113.84421)"
       cx="269.60452"
       cy="547.17944"
       fx="269.60452"
       fy="547.17944"
       r="62.638557" />
    <radialGradient
       inkscape:collect="always"
       xlink:href="#linearGradient3831"
       id="radialGradient4390"
       gradientUnits="userSpaceOnUse"
       gradientTransform="matrix(0.83661237,-0.12131473,0.12350507,0.8517174,-23.529389,113.84421)"
       cx="269.60452"
       cy="547.17944"
       fx="269.60452"
       fy="547.17944"
       r="62.638557" />
    <radialGradient
       inkscape:collect="always"
       xlink:href="#linearGradient3831"
       id="radialGradient4392"
       gradientUnits="userSpaceOnUse"
       gradientTransform="matrix(0.83661237,-0.12131473,0.12350507,0.8517174,-23.529389,113.84421)"
       cx="269.60452"
       cy="547.17944"
       fx="269.60452"
       fy="547.17944"
       r="62.638557" />
    <radialGradient
       inkscape:collect="always"
       xlink:href="#linearGradient3831"
       id="radialGradient4394"
       gradientUnits="userSpaceOnUse"
       gradientTransform="matrix(0.83661237,-0.12131473,0.12350507,0.8517174,-23.529389,113.84421)"
       cx="269.60452"
       cy="547.17944"
       fx="269.60452"
       fy="547.17944"
       r="62.638557" />
    <radialGradient
       inkscape:collect="always"
       xlink:href="#linearGradient3831"
       id="radialGradient4396"
       gradientUnits="userSpaceOnUse"
       gradientTransform="matrix(0.83661237,-0.12131473,0.12350507,0.8517174,-23.529389,113.84421)"
       cx="269.60452"
       cy="547.17944"
       fx="269.60452"
       fy="547.17944"
       r="62.638557" />
    <radialGradient
       inkscape:collect="always"
       xlink:href="#linearGradient3849"
       id="radialGradient4398"
       gradientUnits="userSpaceOnUse"
       cx="368.03571"
       cy="550.75507"
       fx="368.03571"
       fy="550.75507"
       r="26.779409" />
    <radialGradient
       inkscape:collect="always"
       xlink:href="#linearGradient3841"
       id="radialGradient4400"
       gradientUnits="userSpaceOnUse"
       cx="368.03571"
       cy="550.75507"
       fx="368.03571"
       fy="550.75507"
       r="26.779409" />
    <radialGradient
       inkscape:collect="always"
       xlink:href="#linearGradient3831"
       id="radialGradient4402"
       gradientUnits="userSpaceOnUse"
       gradientTransform="matrix(0.83661237,-0.12131473,0.12350507,0.8517174,-23.529389,113.84421)"
       cx="269.60452"
       cy="547.17944"
       fx="269.60452"
       fy="547.17944"
       r="62.638557" />
  </defs>
  <sodipodi:namedview
     id="base"
     pagecolor="#ffffff"
     bordercolor="#666666"
     borderopacity="1.0"
     inkscape:pageopacity="0"
     inkscape:pageshadow="2"
     inkscape:zoom="1"
     inkscape:cx="290.25466"
     inkscape:cy="79.43444"
     inkscape:document-units="px"
     inkscape:current-layer="g4348"
     showgrid="false"
     inkscape:window-width="1536"
     inkscape:window-height="803"
     inkscape:window-x="-8"
     inkscape:window-y="-8"
     inkscape:window-maximized="1"
     fit-margin-top="0"
     fit-margin-left="0"
     fit-margin-right="0"
     fit-margin-bottom="0" />
  <metadata
     id="metadata7">
    <rdf:RDF>
      <cc:Work
         rdf:about="">
        <dc:format>image/svg+xml</dc:format>
        <dc:type
           rdf:resource="http://purl.org/dc/dcmitype/StillImage" />
        <dc:title></dc:title>
      </cc:Work>
    </rdf:RDF>
  </metadata>
  <g
     inkscape:label="Layer 1"
     inkscape:groupmode="layer"
     id="layer1"
     transform="translate(-404.33013,-513.39603)">
    <g
       id="g4348"
       transform="matrix(0.35465971,0,0,0.35465971,260.93229,395.85399)">
      <g
         style="font-size:422.40423584px;font-style:normal;font-variant:normal;font-weight:normal;font-stretch:normal;text-align:start;line-height:125%;letter-spacing:0px;word-spacing:0px;writing-mode:lr-tb;text-anchor:start;fill:#000000;fill-opacity:1;stroke:none;font-family:Aldhabi;-inkscape-font-specification:Aldhabi"
         id="text3819">
        <path
           d="m 736.48602,414.67303 c -3e-5,-3.05969 -0.14652,-5.68013 -0.43945,-7.86132 -0.293,-2.18079 -0.96032,-3.95488 -2.00195,-5.32227 -1.0417,-1.36698 -2.52282,-2.35982 -4.44336,-2.97851 -1.9206,-0.61828 -4.47594,-0.92753 -7.66602,-0.92774 -2.14846,2.1e-4 -4.78517,0.11414 -7.91015,0.3418 -3.12502,0.22807 -6.38022,0.60242 -9.76563,1.12304 l -0.97656,-8.10546 c 9.5703,-2.47374 17.78969,-4.29666 24.6582,-5.46875 6.86846,-1.17166 12.54879,-1.75759 17.04102,-1.75782 4.29682,2.3e-4 7.60086,0.56989 9.91211,1.70899 2.31114,1.13954 4.00384,2.83225 5.07812,5.07812 1.07416,2.24631 1.70892,4.99696 1.9043,8.25196 0.19525,3.25541 0.2929,6.96634 0.29297,11.13281 -7e-5,0.26061 -0.0326,2.40905 -0.0977,6.44531 -0.0652,4.03665 -0.1791,9.39146 -0.3418,16.06445 -0.16282,6.67335 -0.35813,14.42074 -0.58593,23.24219 -0.22793,8.82176 -0.48835,18.1642 -0.78125,28.02735 -0.29303,9.86339 -0.63483,20.00336 -1.02539,30.41992 -0.39069,10.41675 -0.83014,20.54044 -1.31836,30.37109 -0.48834,9.83078 -1.00918,19.14067 -1.5625,27.92969 -0.55345,8.78909 -1.15566,16.47137 -1.80664,23.04687 6.24993,-0.91144 12.14186,-1.57876 17.67578,-2.00195 5.53377,-0.42316 10.677,-0.63475 15.42968,-0.63477 6.70564,2e-5 12.97191,0.17906 18.79883,0.53711 5.82671,0.35809 11.57215,0.53713 17.23633,0.53711 3.97123,2e-5 7.50312,-0.58592 10.5957,-1.75781 3.09231,-1.17186 5.74531,-3.22264 7.95899,-6.15234 2.2134,-2.92967 4.05259,-6.90102 5.51758,-11.91407 1.46469,-5.01298 2.58774,-11.39318 3.36914,-19.14062 l 8.49609,0.68359 c -0.0653,11.45838 -0.76513,20.8822 -2.09961,28.27149 -1.33479,7.38934 -3.23909,13.21615 -5.71289,17.48047 -2.47411,4.26432 -5.48517,7.22656 -9.0332,8.88672 -3.54832,1.66015 -7.60105,2.49023 -12.15821,2.49023 -3.45064,0 -7.25923,-0.32553 -11.42578,-0.97656 -4.16678,-0.65105 -8.70779,-1.38347 -13.62304,-2.19727 -4.91547,-0.8138 -10.23773,-1.54622 -15.9668,-2.19726 -5.72925,-0.65104 -11.91414,-0.97656 -18.55469,-0.97657 -5.92454,10e-6 -12.35357,0.37435 -19.28711,1.12305 -6.93364,0.7487 -14.04626,2.00195 -21.33789,3.75977 l -1.75781,-0.19532 c 1.10674,-8.91926 2.06703,-18.50584 2.88086,-28.75976 0.81377,-10.25387 1.49736,-20.91467 2.05078,-31.98242 0.55335,-11.06764 1.02536,-22.39576 1.41602,-33.98438 0.39059,-11.58844 0.68355,-23.17697 0.8789,-34.76562 0.19528,-11.58841 0.32549,-23.01418 0.39063,-34.27735 0.0651,-11.26285 0.0976,-22.13523 0.0977,-32.61719 z"
           style="font-size:400px;font-family:Gabriola;-inkscape-font-specification:Gabriola"
           id="path4670" />
        <path
           d="m 955.52899,507.8371 c -9e-5,-5.14313 -0.84645,-9.60276 -2.53906,-13.37891 -1.6928,-3.77592 -3.90634,-6.86837 -6.64063,-9.27734 -2.73445,-2.40873 -5.8269,-4.19909 -9.27734,-5.3711 -3.45059,-1.17174 -6.90111,-1.75768 -10.35156,-1.75781 -4.62246,1.3e-4 -8.5287,0.48841 -11.71875,1.46484 -3.19016,0.97669 -5.77804,2.31133 -7.76367,4.00391 -1.98572,1.69283 -3.41801,3.69478 -4.29688,6.00586 -0.87895,2.31131 -1.3184,4.80155 -1.31836,7.4707 -4e-5,3.12511 0.56962,6.26638 1.70899,9.42383 1.13928,3.15765 2.81571,6.23382 5.02929,9.22852 l -0.39062,1.07422 c -3.71098,1.823 -7.45447,2.73446 -11.23047,2.73437 -2.21358,9e-5 -4.28063,-0.34171 -6.20117,-1.02539 -1.9206,-0.6835 -3.58076,-1.67634 -4.98047,-2.97852 -1.39976,-1.30198 -2.50653,-2.89704 -3.32031,-4.78515 -0.81383,-1.88792 -1.22073,-4.00381 -1.22071,-6.34766 -2e-5,-3.84104 0.92772,-7.45431 2.78321,-10.83984 1.85544,-3.3853 4.31312,-6.47774 7.37304,-9.27735 3.05987,-2.79935 6.60804,-5.30586 10.64453,-7.51953 4.03642,-2.2134 8.20308,-4.08515 12.5,-5.61523 4.29682,-1.52981 8.60997,-2.70168 12.93946,-3.51563 4.32935,-0.81366 8.34953,-1.22056 12.06054,-1.2207 6.83586,1.4e-4 12.67895,0.9116 17.5293,2.73438 4.85016,1.82305 8.78896,4.47604 11.81641,7.95898 3.02723,3.4832 5.24077,7.69869 6.64062,12.64648 1.39963,4.94803 2.0995,10.54699 2.09961,16.79688 -1.1e-4,4.29697 -0.17915,9.01702 -0.53711,14.16016 -0.35819,5.14331 -0.76509,10.53067 -1.2207,16.16211 -0.45584,5.63157 -0.86274,11.44211 -1.2207,17.43164 -0.35819,5.98963 -0.53723,11.94665 -0.53711,17.87109 -1.2e-4,9.37503 1.74142,16.42255 5.22461,21.14258 3.48295,4.72006 8.05651,7.08008 13.7207,7.08008 5.01288,0 10.61182,-1.85546 16.79692,-5.56641 l 2.832,4.19922 c -4.3621,4.36198 -9.1147,7.68229 -14.25783,9.96094 -5.14336,2.27864 -10.547,3.41796 -16.21093,3.41796 -4.23189,0 -8.13814,-0.71614 -11.71875,-2.14843 -3.58084,-1.4323 -6.67328,-3.56445 -9.27735,-6.39649 -2.60426,-2.83202 -4.62249,-6.39647 -6.05469,-10.69336 -1.43238,-4.29685 -2.14852,-9.27732 -2.14843,-14.9414 -9e-5,-1.69268 0.0487,-3.38539 0.14648,-5.07813 0.0976,-1.69267 0.30915,-3.48303 0.63477,-5.37109 l -0.58594,0 c -2.79957,5.59899 -6.0385,11.11656 -9.7168,16.55273 -3.67846,5.43622 -7.71492,10.28647 -12.10937,14.55078 -4.3946,4.26433 -9.08209,7.71485 -14.0625,10.35157 -4.98052,2.63671 -10.20513,3.95507 -15.67383,3.95507 -4.49222,0 -8.59378,-0.78125 -12.30469,-2.34375 -3.71096,-1.5625 -6.88478,-3.71093 -9.52148,-6.44531 -2.63674,-2.73437 -4.68752,-5.9733 -6.15235,-9.71679 -1.46485,-3.74348 -2.19727,-7.82876 -2.19726,-12.25586 -1e-5,-5.72914 1.05793,-10.93747 3.17383,-15.625 2.11587,-4.68746 5.04555,-8.88667 8.78906,-12.59766 3.74346,-3.71088 8.21937,-6.91726 13.42773,-9.61914 5.2083,-2.70176 10.87235,-4.94785 16.99219,-6.73828 6.11973,-1.79029 12.59759,-3.12493 19.43359,-4.00391 6.83586,-0.87883 13.802,-1.31828 20.89844,-1.31836 0.45564,-4.10148 0.82999,-8.07283 1.12305,-11.91406 0.29287,-3.84105 0.43936,-8.07282 0.43945,-12.69531 z m -59.96094,67.08984 c -3e-5,2.53909 0.27666,4.96422 0.83008,7.27539 0.55335,2.31122 1.43226,4.34573 2.63672,6.10352 1.20439,1.75783 2.73434,3.14129 4.58984,4.15039 1.85543,1.00913 4.08525,1.51368 6.68946,1.51367 2.92963,10e-6 5.95697,-0.68358 9.08203,-2.05078 3.12494,-1.36717 6.20111,-3.25519 9.22851,-5.66406 3.02728,-2.40883 5.92441,-5.28969 8.69141,-8.64258 2.76685,-3.35283 5.25708,-7.01494 7.4707,-10.98633 2.21346,-3.97131 4.05265,-8.15425 5.51758,-12.54883 1.46476,-4.39447 2.42504,-8.90293 2.88086,-13.52539 -4.81779,0.13028 -9.60294,0.43952 -14.35547,0.92774 -4.75267,0.48834 -9.26113,1.25332 -13.52539,2.29492 -4.26438,1.04173 -8.21945,2.40891 -11.86523,4.10156 -3.64588,1.69277 -6.78716,3.79237 -9.42383,6.29883 -2.63676,2.50656 -4.70381,5.4688 -6.20117,8.88672 -1.49743,3.41801 -2.24613,7.37308 -2.2461,11.86523 z"
           style="font-size:400px;font-family:Gabriola;-inkscape-font-specification:Gabriola"
           id="path4672" />
        <path
           d="m 1031.2126,572.97382 c 0.4557,4.94794 1.774,9.21226 3.9551,12.79296 2.1809,3.58075 4.8665,6.51044 8.0566,8.78907 3.1901,2.27865 6.722,3.97136 10.5957,5.07812 3.8737,1.10678 7.7311,1.66017 11.5723,1.66016 3.5806,10e-6 7.0312,-0.48828 10.3515,-1.46485 3.3203,-0.97655 6.25,-2.37629 8.7891,-4.19921 2.539,-1.82291 4.5735,-4.069 6.1035,-6.73829 1.5299,-2.66924 2.2948,-5.66403 2.2949,-8.98437 -10e-5,-3.45049 -0.8139,-6.47783 -2.4414,-9.08203 -1.6277,-2.60413 -3.8086,-4.98043 -6.5429,-7.12891 -2.7345,-2.14839 -5.9083,-4.13406 -9.5215,-5.95703 -3.6134,-1.82286 -7.3731,-3.67833 -11.2793,-5.56641 -3.4506,-1.62754 -6.9174,-3.27142 -10.4004,-4.93164 -3.4831,-1.66009 -6.8523,-3.46673 -10.1074,-5.41992 -3.2553,-1.95305 -6.2989,-4.06894 -9.1309,-6.34765 -2.832,-2.27857 -5.306,-4.80136 -7.4219,-7.56836 -2.1159,-2.76685 -3.776,-5.85929 -4.9804,-9.27735 -1.2045,-3.41787 -1.8067,-7.21019 -1.8067,-11.37695 0,-4.49208 0.7813,-8.62619 2.3438,-12.40234 1.5625,-3.77593 3.6946,-7.17762 6.3965,-10.20508 2.7018,-3.02722 5.8268,-5.68021 9.375,-7.95899 3.5481,-2.27851 7.3404,-4.1828 11.3769,-5.71289 4.0364,-1.52981 8.1868,-2.66913 12.4512,-3.41797 4.2642,-0.74855 8.4146,-1.1229 12.4512,-1.12304 5.2082,1.4e-4 10.1398,0.5698 14.7949,1.70898 4.6548,1.13946 8.7238,2.79962 12.207,4.98047 3.483,2.18112 6.2499,4.83411 8.3008,7.95898 2.0507,3.12513 3.0761,6.64075 3.0762,10.54688 -10e-5,1.49751 -0.2606,3.12511 -0.7813,4.88281 -0.5209,1.75792 -1.3998,3.4018 -2.6367,4.93164 -1.2371,1.53006 -2.8647,2.81586 -4.8828,3.85742 -2.0183,1.04177 -4.4923,1.59516 -7.4219,1.66016 -2.7345,10e-5 -5.599,-0.42307 -8.5937,-1.26953 l -0.293,-0.97656 c 0.9114,-2.08323 1.5624,-4.0038 1.9531,-5.76172 0.3906,-1.7577 0.5859,-3.38531 0.5859,-4.88281 -0.065,-2.99468 -0.8301,-5.51746 -2.2949,-7.56836 -1.4649,-2.05066 -3.3041,-3.72709 -5.5176,-5.0293 -2.2136,-1.30196 -4.6712,-2.24597 -7.373,-2.83203 -2.7019,-0.58581 -5.3549,-0.87878 -7.959,-0.87891 -4.6224,1.3e-4 -8.7565,0.61862 -12.4023,1.85547 -3.6459,1.23711 -6.7221,2.88099 -9.2285,4.93164 -2.5066,2.0509 -4.4272,4.37838 -5.7618,6.98242 -1.3346,2.60428 -2.0019,5.3061 -2.0019,8.10547 0,3.58084 0.944,6.78721 2.832,9.61914 1.888,2.83213 4.3945,5.43629 7.5195,7.8125 3.125,2.37639 6.722,4.60621 10.7911,6.68946 4.0689,2.08341 8.317,4.16674 12.7441,6.25 4.9478,2.34382 9.8632,4.76895 14.7461,7.27539 4.8827,2.50658 9.2447,5.35488 13.0859,8.54492 3.8411,3.19016 6.9498,6.85227 9.3262,10.98633 2.3762,4.13416 3.5644,9.00069 3.5645,14.59961 -10e-5,6.70576 -1.4813,12.66278 -4.4434,17.87109 -2.9623,5.20835 -6.9174,9.60287 -11.8652,13.18359 -4.948,3.58073 -10.6284,6.29883 -17.041,8.1543 -6.4129,1.85546 -13.0698,2.7832 -19.9708,2.7832 -3.4505,0 -7.015,-0.26042 -10.6933,-0.78125 -3.6784,-0.52083 -7.2429,-1.30208 -10.6934,-2.34375 -3.4505,-1.04166 -6.722,-2.32747 -9.8144,-3.85742 -3.0925,-1.52994 -5.7943,-3.28775 -8.1055,-5.27344 -2.3112,-1.98566 -4.1341,-4.1992 -5.4687,-6.64062 -1.3347,-2.44139 -2.002,-5.12694 -2.002,-8.05664 0,-2.53904 0.5371,-4.68748 1.6113,-6.44531 1.0742,-1.75779 2.4903,-3.19008 4.2481,-4.29688 1.7578,-1.10674 3.7272,-1.93681 5.9082,-2.49023 2.181,-0.55335 4.4108,-0.8626 6.6894,-0.92774 z"
           style="font-size:400px;font-family:Gabriola;-inkscape-font-specification:Gabriola"
           id="path4674" />
        <path
           d="m 1182.8727,397.09491 c -2.7344,12.36999 -5.0293,25.14667 -6.8847,38.33008 -1.8555,13.18375 -3.4343,26.1883 -4.7364,39.01367 3.0599,0.13034 6.0384,0.228 8.9356,0.29297 2.8971,0.0652 5.5989,0.13034 8.1055,0.19531 2.5064,0.0652 4.785,0.0978 6.8359,0.0977 2.0507,1.3e-4 3.7597,1.3e-4 5.127,0 5.9243,1.3e-4 10.7746,-0.35794 14.5507,-1.07422 0.3255,1.1069 0.5859,2.11602 0.7813,3.02734 0.1952,0.91159 0.2929,1.75794 0.293,2.53906 -10e-5,2.86471 -1.1883,4.72018 -3.5645,5.56641 -2.3764,0.84648 -5.8106,1.26965 -10.3027,1.26953 -4.297,1.2e-4 -9.0984,-0.26029 -14.4043,-0.78125 -5.3061,-0.52071 -11.1166,-1.00899 -17.4317,-1.46484 -0.7162,6.96626 -1.3184,13.75336 -1.8066,20.36133 -0.4883,6.60817 -0.879,12.84188 -1.1719,18.70117 -0.293,5.85945 -0.5046,11.29565 -0.6348,16.30859 -0.1302,5.01309 -0.1953,9.37506 -0.1953,13.08594 0,6.96619 0.3581,13.18364 1.0743,18.65234 0.7161,5.46878 1.9856,10.10745 3.8085,13.91602 1.8229,3.80861 4.3294,6.72202 7.5196,8.74023 3.19,2.01824 7.2265,3.02736 12.1094,3.02735 3.5155,1e-5 7.438,-0.61848 11.7675,-1.85547 4.3294,-1.23697 9.261,-3.22264 14.795,-5.95703 1.7577,1.75783 2.7668,3.90626 3.0273,6.44531 -4.0366,2.66928 -8.1056,5.09441 -12.207,7.27539 -4.1017,2.18099 -8.1381,4.05274 -12.1094,5.61523 -3.9714,1.5625 -7.8126,2.76693 -11.5234,3.61329 -3.711,0.84635 -7.2267,1.26952 -10.5469,1.26953 -4.362,-10e-6 -8.3497,-0.79753 -11.9629,-2.39258 -3.6133,-1.59505 -6.7383,-4.42708 -9.375,-8.49609 -2.6368,-4.06901 -4.6875,-9.55403 -6.1524,-16.45508 -1.4648,-6.90102 -2.1972,-15.62496 -2.1972,-26.17188 0,-5.92442 0.098,-12.02793 0.2929,-18.31054 0.1953,-6.28248 0.4558,-12.64641 0.7813,-19.0918 0.3255,-6.44522 0.7487,-12.89053 1.2695,-19.33594 0.5208,-6.4452 1.1068,-12.79285 1.7578,-19.04297 -5.1432,0.0652 -9.9121,0.27682 -14.3066,0.63477 -4.3945,0.35819 -8.1543,0.92785 -11.2793,1.70898 -0.1953,-0.3905 -0.293,-0.84623 -0.293,-1.36719 0,-1.36706 0.6674,-2.65286 2.002,-3.85742 1.3346,-1.2043 3.1901,-2.29479 5.5664,-3.27148 2.3763,-0.97643 5.2246,-1.79023 8.5449,-2.44141 3.3203,-0.65091 6.9661,-1.10663 10.9375,-1.36719 1.4974,-13.60662 3.0924,-26.46468 4.7852,-38.57421 1.6926,-12.10919 3.3854,-22.91648 5.0781,-32.42188 0.3255,-1.6925 0.9277,-3.09224 1.8066,-4.19922 0.8789,-1.10656 1.9043,-1.98546 3.0762,-2.63672 1.1718,-0.65083 2.4414,-1.10655 3.8086,-1.36718 1.3671,-0.26021 2.7018,-0.39042 4.0039,-0.39063 2.1484,2.1e-4 4.0852,0.22808 5.8106,0.68359 1.7252,0.45595 3.3365,1.10699 4.8339,1.95313 z"
           style="font-size:400px;font-family:Gabriola;-inkscape-font-specification:Gabriola"
           id="path4676" />
        <path
           d="m 1480.7243,601.00116 c -4.6878,2.01823 -9.0009,3.75977 -12.9394,5.22461 -3.9391,1.46484 -7.6012,2.66927 -10.9864,3.61328 -3.3856,0.94401 -6.5432,1.64388 -9.4726,2.09961 -2.9299,0.45572 -5.762,0.68359 -8.4961,0.68359 -3.7112,0 -6.9664,-0.69987 -9.7657,-2.09961 -2.7996,-1.39974 -5.1271,-3.69466 -6.9824,-6.88476 -1.8556,-3.1901 -3.2391,-7.38931 -4.1504,-12.59766 -0.9116,-5.20831 -1.3674,-11.65361 -1.3672,-19.33594 l 0,-8.59375 c -2e-4,-4.0364 0.016,-8.70762 0.049,-14.01367 0.032,-5.30592 0.081,-10.93743 0.1465,-16.89453 0.065,-5.95695 0.1462,-12.02791 0.2441,-18.21289 0.098,-6.18479 0.2114,-12.1581 0.3418,-17.91992 0.13,-5.7616 0.2602,-11.14897 0.3906,-16.16211 0.13,-5.01289 0.2602,-9.27721 0.3906,-12.79297 0.3254,-7.61704 0.6997,-15.21794 1.1231,-22.80273 0.423,-7.58447 0.9926,-15.02261 1.709,-22.31446 l -0.7813,-0.29297 c -1.1069,2.92988 -2.4416,6.26646 -4.0039,10.00977 -1.5627,3.74366 -3.5483,8.25212 -5.957,13.52539 -5.7294,12.63036 -11.5725,25.71628 -17.5293,39.25781 -5.9572,13.54178 -11.9793,27.36013 -18.0664,41.45508 -6.0874,14.09512 -12.2235,28.38547 -18.4082,42.8711 -6.185,14.4857 -12.3374,28.95508 -18.457,43.4082 l -4.7852,-0.19531 c -1.3673,-4.42709 -3.0275,-9.65169 -4.9805,-15.67383 -1.9532,-6.02212 -4.1016,-12.53253 -6.4453,-19.53125 -2.3438,-6.99866 -4.8341,-14.38798 -7.4707,-22.16797 -2.6368,-7.77989 -5.3223,-15.65748 -8.0566,-23.63281 -2.7345,-7.97518 -5.4851,-15.93416 -8.252,-23.87696 -2.767,-7.9426 -5.4363,-15.59233 -8.0078,-22.94922 -2.5717,-7.35663 -5.0131,-14.27395 -7.3242,-20.75195 -2.3113,-6.47771 -4.3783,-12.2557 -6.2012,-17.33398 -2.0834,-5.92431 -3.89,-11.16519 -5.4199,-15.72266 -1.53,-4.55711 -2.8484,-8.59356 -3.9551,-12.10937 l -0.6836,0.29296 c 0,1.95332 0.016,3.89016 0.049,5.81055 0.032,1.92076 0.049,3.98781 0.049,6.20117 l 0,16.11328 c -10e-5,10.35172 -0.1628,20.91486 -0.4883,31.68946 -0.3256,10.77486 -0.7487,21.38682 -1.2695,31.83594 -0.5209,10.4493 -1.1394,20.55671 -1.8555,30.32226 -0.7162,9.76568 -1.4649,18.7826 -2.2461,27.05078 -0.6511,6.83597 -1.2533,12.64651 -1.8066,17.43164 -0.5535,4.78518 -1.172,8.80536 -1.8555,12.06055 -0.6836,3.25522 -1.5137,5.81055 -2.4902,7.66602 -0.9766,1.85547 -2.1973,3.27148 -3.6621,4.24804 -1.4649,0.97656 -3.2553,1.59505 -5.3711,1.85547 -2.116,0.26041 -4.6387,0.39062 -7.5684,0.39063 l -2.9297,0 c -0.5859,-1e-5 -1.3021,-0.0163 -2.1484,-0.0488 -0.8464,-0.0326 -1.8881,-0.0814 -3.125,-0.14649 l -1.3672,-0.97656 c 3.0599,-6.3151 5.778,-13.36262 8.1543,-21.14258 2.3763,-7.77992 4.4596,-16.03186 6.25,-24.75586 1.7903,-8.7239 3.3365,-17.7571 4.6387,-27.09961 1.302,-9.34236 2.3925,-18.66853 3.2714,-27.97851 0.8789,-9.30979 1.5951,-18.48947 2.1485,-27.53906 0.5533,-9.04935 0.9602,-17.64309 1.2207,-25.78125 0.2604,-8.13786 0.4394,-15.65739 0.5371,-22.5586 0.098,-6.90086 0.1464,-12.92299 0.1465,-18.0664 -10e-5,-3.32012 -0.2279,-6.05449 -0.6836,-8.20313 -0.4558,-2.14823 -1.2533,-3.85722 -2.3926,-5.12695 -1.1394,-1.26933 -2.7019,-2.14823 -4.6875,-2.63672 -1.9857,-0.48807 -4.541,-0.73221 -7.666,-0.73242 -2.1485,2.1e-4 -4.6224,0.14669 -7.4219,0.43945 -2.7995,0.29318 -5.8919,0.70008 -9.2773,1.2207 l -1.0743,-8.59375 c 11.9141,-2.73415 21.7123,-4.76866 29.3946,-6.10351 7.6822,-1.33441 13.802,-2.00173 18.3594,-2.00196 2.3437,2.3e-4 4.3619,0.21182 6.0546,0.63477 1.6927,0.4234 3.1738,1.13955 4.4434,2.14844 1.2695,1.00933 2.3925,2.34397 3.3691,4.0039 0.9765,1.66038 1.9205,3.72743 2.8321,6.20118 3.4504,9.63561 7.0963,19.88951 10.9375,30.76171 3.841,10.87257 7.7636,21.97282 11.7676,33.30079 4.0038,11.32826 8.0077,22.67265 12.0117,34.0332 4.0038,11.36078 7.8612,22.37965 11.5722,33.05664 1.4322,4.23185 2.7506,8.08926 3.9551,11.57227 1.2043,3.48313 2.3111,6.70579 3.3203,9.66796 1.009,2.9623 1.953,5.79433 2.8321,8.4961 0.8787,2.70187 1.7088,5.38741 2.4902,8.05664 l 0.6836,0 c 1.0415,-2.79944 2.1157,-5.55008 3.2226,-8.25195 1.1067,-2.70177 2.2786,-5.50125 3.5157,-8.39844 1.2368,-2.89708 2.5877,-6.0058 4.0527,-9.32617 1.4647,-3.32024 3.1086,-7.06373 4.9316,-11.23047 4.5572,-10.41658 9.2935,-21.22386 14.209,-32.42188 4.9152,-11.19779 9.9608,-22.65611 15.1367,-34.375 5.1756,-11.71859 10.4328,-23.60009 15.7715,-35.64453 5.3384,-12.04408 10.7095,-24.12089 16.1133,-36.23047 0.5857,-1.30186 1.3833,-2.37608 2.3926,-3.22265 1.0089,-0.84614 2.1157,-1.51345 3.3203,-2.00196 1.2042,-0.48805 2.4575,-0.82985 3.7598,-1.02539 1.3018,-0.19509 2.5063,-0.29274 3.6132,-0.29297 1.8878,2.3e-4 3.9549,0.24437 6.2012,0.73243 2.2459,0.4885 4.4106,1.18837 6.4942,2.0996 -0.9768,10.6773 -1.8395,20.89864 -2.5879,30.66407 -0.749,9.7658 -1.3837,19.271 -1.9043,28.51562 -0.5211,9.24495 -0.9768,18.3758 -1.3672,27.39258 -0.3909,9.01705 -0.6838,18.11535 -0.8789,27.29492 -0.1956,9.17979 -0.342,18.55478 -0.4395,28.125 -0.098,9.57039 -0.1467,19.56387 -0.1465,29.98047 -2e-4,6.90109 0.2928,12.79301 0.8789,17.67578 0.5858,4.88284 1.6112,8.87047 3.0762,11.96289 1.4646,3.09247 3.434,5.35484 5.9082,6.78711 2.4737,1.43231 5.5662,2.14845 9.2774,2.14844 1.3669,10e-6 2.6853,-0.0325 3.955,-0.0977 1.2693,-0.0651 2.5877,-0.21157 3.9551,-0.43945 1.367,-0.22785 2.8806,-0.56965 4.541,-1.02539 1.6599,-0.45572 3.5642,-1.04165 5.7129,-1.75781 z"
           style="font-size:400px;font-family:Gabriola;-inkscape-font-specification:Gabriola"
           id="path4678" />
        <path
           d="m 1568.8102,507.8371 c -10e-5,-5.14313 -0.8464,-9.60276 -2.539,-13.37891 -1.6928,-3.77592 -3.9064,-6.86837 -6.6406,-9.27734 -2.7345,-2.40873 -5.8269,-4.19909 -9.2774,-5.3711 -3.4506,-1.17174 -6.9011,-1.75768 -10.3516,-1.75781 -4.6224,1.3e-4 -8.5287,0.48841 -11.7187,1.46484 -3.1902,0.97669 -5.778,2.31133 -7.7637,4.00391 -1.9857,1.69283 -3.418,3.69478 -4.2968,6.00586 -0.879,2.31131 -1.3184,4.80155 -1.3184,7.4707 0,3.12511 0.5696,6.26638 1.709,9.42383 1.1393,3.15765 2.8157,6.23382 5.0293,9.22852 l -0.3907,1.07422 c -3.7109,1.823 -7.4544,2.73446 -11.2304,2.73437 -2.2136,9e-5 -4.2807,-0.34171 -6.2012,-1.02539 -1.9206,-0.6835 -3.5807,-1.67634 -4.9805,-2.97852 -1.3997,-1.30198 -2.5065,-2.89704 -3.3203,-4.78515 -0.8138,-1.88792 -1.2207,-4.00381 -1.2207,-6.34766 0,-3.84104 0.9277,-7.45431 2.7832,-10.83984 1.8555,-3.3853 4.3132,-6.47774 7.3731,-9.27735 3.0598,-2.79935 6.608,-5.30586 10.6445,-7.51953 4.0364,-2.2134 8.2031,-4.08515 12.5,-5.61523 4.2968,-1.52981 8.61,-2.70168 12.9395,-3.51563 4.3293,-0.81366 8.3495,-1.22056 12.0605,-1.2207 6.8359,1.4e-4 12.679,0.9116 17.5293,2.73438 4.8502,1.82305 8.789,4.47604 11.8164,7.95898 3.0272,3.4832 5.2408,7.69869 6.6406,12.64648 1.3997,4.94803 2.0995,10.54699 2.0996,16.79688 -10e-5,4.29697 -0.1791,9.01702 -0.5371,14.16016 -0.3582,5.14331 -0.7651,10.53067 -1.2207,16.16211 -0.4558,5.63157 -0.8627,11.44211 -1.2207,17.43164 -0.3582,5.98963 -0.5372,11.94665 -0.5371,17.87109 -10e-5,9.37503 1.7414,16.42255 5.2246,21.14258 3.483,4.72006 8.0565,7.08008 13.7207,7.08008 5.0129,0 10.6119,-1.85546 16.7969,-5.56641 l 2.832,4.19922 c -4.3621,4.36198 -9.1147,7.68229 -14.2578,9.96094 -5.1433,2.27864 -10.547,3.41796 -16.2109,3.41796 -4.2319,0 -8.1381,-0.71614 -11.7188,-2.14843 -3.5808,-1.4323 -6.6732,-3.56445 -9.2773,-6.39649 -2.6043,-2.83202 -4.6225,-6.39647 -6.0547,-10.69336 -1.4324,-4.29685 -2.1485,-9.27732 -2.1484,-14.9414 -10e-5,-1.69268 0.049,-3.38539 0.1465,-5.07813 0.097,-1.69267 0.3091,-3.48303 0.6347,-5.37109 l -0.5859,0 c -2.7996,5.59899 -6.0385,11.11656 -9.7168,16.55273 -3.6785,5.43622 -7.7149,10.28647 -12.1094,14.55078 -4.3946,4.26433 -9.0821,7.71485 -14.0625,10.35157 -4.9805,2.63671 -10.2051,3.95507 -15.6738,3.95507 -4.4922,0 -8.5938,-0.78125 -12.3047,-2.34375 -3.711,-1.5625 -6.8848,-3.71093 -9.5215,-6.44531 -2.6367,-2.73437 -4.6875,-5.9733 -6.1523,-9.71679 -1.4649,-3.74348 -2.1973,-7.82876 -2.1973,-12.25586 0,-5.72914 1.0579,-10.93747 3.1738,-15.625 2.1159,-4.68746 5.0456,-8.88667 8.7891,-12.59766 3.7435,-3.71088 8.2194,-6.91726 13.4277,-9.61914 5.2083,-2.70176 10.8724,-4.94785 16.9922,-6.73828 6.1197,-1.79029 12.5976,-3.12493 19.4336,-4.00391 6.8359,-0.87883 13.802,-1.31828 20.8984,-1.31836 0.4557,-4.10148 0.83,-8.07283 1.1231,-11.91406 0.2929,-3.84105 0.4393,-8.07282 0.4394,-12.69531 z m -59.9609,67.08984 c 0,2.53909 0.2767,4.96422 0.8301,7.27539 0.5533,2.31122 1.4322,4.34573 2.6367,6.10352 1.2044,1.75783 2.7343,3.14129 4.5898,4.15039 1.8555,1.00913 4.0853,1.51368 6.6895,1.51367 2.9296,10e-6 5.957,-0.68358 9.082,-2.05078 3.125,-1.36717 6.2011,-3.25519 9.2285,-5.66406 3.0273,-2.40883 5.9245,-5.28969 8.6915,-8.64258 2.7668,-3.35283 5.257,-7.01494 7.4707,-10.98633 2.2134,-3.97131 4.0526,-8.15425 5.5175,-12.54883 1.4648,-4.39447 2.4251,-8.90293 2.8809,-13.52539 -4.8178,0.13028 -9.603,0.43952 -14.3555,0.92774 -4.7527,0.48834 -9.2611,1.25332 -13.5254,2.29492 -4.2643,1.04173 -8.2194,2.40891 -11.8652,4.10156 -3.6459,1.69277 -6.7872,3.79237 -9.4238,6.29883 -2.6368,2.50656 -4.7038,5.4688 -6.2012,8.88672 -1.4974,3.41801 -2.2461,7.37308 -2.2461,11.86523 z"
           style="font-size:400px;font-family:Gabriola;-inkscape-font-specification:Gabriola"
           id="path4680" />
        <path
           d="m 1660.1188,426.68475 c -2.2787,1.8e-4 -4.2969,-0.47182 -6.0547,-1.41601 -1.7578,-0.94383 -3.2552,-2.18081 -4.4921,-3.71094 -1.237,-1.52976 -2.1811,-3.28757 -2.8321,-5.27344 -0.651,-1.98548 -0.9766,-4.01998 -0.9765,-6.10351 -10e-5,-2.92949 0.4882,-5.51738 1.4648,-7.76367 0.9765,-2.24589 2.2461,-4.13391 3.8086,-5.66407 1.5625,-1.52973 3.2877,-2.66905 5.1758,-3.41797 1.888,-0.74848 3.7434,-1.12283 5.5664,-1.12304 2.2135,2.1e-4 4.1992,0.40711 5.957,1.2207 1.7578,0.81402 3.2715,1.93706 4.541,3.36914 1.2695,1.4325 2.2461,3.07638 2.9297,4.93164 0.6836,1.85567 1.0254,3.85763 1.0254,6.00586 0,2.27884 -0.3907,4.54121 -1.1719,6.78711 -0.7813,2.24629 -1.8718,4.28079 -3.2714,6.10352 -1.3998,1.8231 -3.0925,3.28794 -5.0782,4.39453 -1.9857,1.10695 -4.183,1.66033 -6.5918,1.66015 z m 8.4961,44.14063 c -1.1068,7.422 -2.0508,14.86015 -2.832,22.31445 -0.7813,7.45454 -1.4161,14.66482 -1.9043,21.63086 -0.4883,6.96623 -0.8464,13.55802 -1.0742,19.77539 -0.2279,6.21752 -0.3419,11.83275 -0.3418,16.8457 -10e-5,6.77089 0.098,12.58143 0.293,17.43165 0.1952,4.85029 0.5207,8.93557 0.9765,12.25585 0.4557,3.32034 1.0254,5.97333 1.709,7.95899 0.6835,1.98569 1.5299,3.51564 2.5391,4.58984 1.009,1.07424 2.1809,1.7741 3.5156,2.09961 1.3346,0.32554 2.8482,0.4883 4.541,0.48828 3.1249,2e-5 6.4941,-0.47199 10.1074,-1.41601 3.6132,-0.944 7.2753,-2.26236 10.9864,-3.95508 l 1.8554,5.07812 c -2.3438,1.88804 -5.2898,3.80861 -8.8379,5.76172 -3.5482,1.95313 -7.2754,3.7435 -11.1816,5.3711 -3.9063,1.6276 -7.7312,2.94596 -11.4746,3.95508 -3.7436,1.00911 -6.9825,1.51366 -9.7168,1.51367 -1.823,-10e-6 -3.4831,-0.14649 -4.9805,-0.43946 -1.4974,-0.29297 -2.8483,-1.02539 -4.0527,-2.19726 -1.2045,-1.17188 -2.2787,-2.89714 -3.2227,-5.17578 -0.944,-2.27864 -1.7253,-5.37109 -2.3437,-9.27735 -0.6185,-3.90623 -1.0905,-8.78904 -1.416,-14.64843 -0.3256,-5.85935 -0.4883,-12.95569 -0.4883,-21.28907 0,-4.88276 0.049,-10.40033 0.1465,-16.55273 0.098,-6.15227 0.2441,-12.76034 0.4394,-19.82422 0.1953,-7.06371 0.4557,-14.51813 0.7813,-22.36328 0.3255,-7.84494 0.7486,-15.93412 1.2695,-24.26758 0.1302,-1.82278 0.6185,-3.3039 1.4648,-4.44336 0.8464,-1.13918 1.888,-2.01809 3.125,-2.63672 1.237,-0.61835 2.5553,-1.04152 3.9551,-1.26953 1.3997,-0.22772 2.6855,-0.34165 3.8574,-0.3418 4.362,1.5e-4 8.4635,1.00926 12.3047,3.02735 z"
           style="font-size:400px;font-family:Gabriola;-inkscape-font-specification:Gabriola"
           id="path4682" />
        <path
           d="m 1754.4548,346.11835 c -1.3022,11.06796 -2.588,22.41235 -3.8574,34.0332 -1.2696,11.62131 -2.4741,23.3726 -3.6133,35.25391 -1.1394,11.88169 -2.1973,23.81201 -3.1739,35.79101 -0.9766,11.97931 -1.8229,23.77943 -2.539,35.40039 -0.7162,11.62121 -1.2696,23.0307 -1.6602,34.22852 -0.3906,11.19799 -0.586,21.94017 -0.5859,32.22656 -10e-5,6.44536 0.081,11.97921 0.2441,16.60156 0.1627,4.62243 0.4232,8.52868 0.7813,11.71875 0.358,3.19013 0.8463,5.76174 1.4648,7.71485 0.6185,1.95314 1.3834,3.45053 2.2949,4.49218 0.9115,1.04168 1.9857,1.74155 3.2227,2.09961 1.2369,0.35809 2.7018,0.53713 4.3945,0.53711 3.125,2e-5 6.4941,-0.47199 10.1075,-1.41601 3.6132,-0.944 7.2753,-2.26236 10.9863,-3.95508 l 1.8554,5.07812 c -2.3438,1.88804 -5.2897,3.80861 -8.8378,5.76172 -3.5483,1.95313 -7.2755,3.7435 -11.1817,5.3711 -3.9063,1.6276 -7.7312,2.94596 -11.4746,3.95508 -3.7435,1.00911 -6.9825,1.51366 -9.7168,1.51367 -3.5156,-10e-6 -6.2988,-0.89519 -8.3496,-2.68555 -2.0508,-1.79036 -3.6133,-4.70377 -4.6875,-8.74023 -1.0742,-4.03645 -1.7578,-9.29361 -2.0508,-15.77149 -0.293,-6.47783 -0.4395,-14.37171 -0.4394,-23.68164 -10e-5,-3.38537 0.098,-8.21935 0.2929,-14.50195 0.1953,-6.28249 0.472,-13.59042 0.8301,-21.92383 0.3581,-8.33324 0.765,-17.44782 1.2207,-27.34375 0.4557,-9.89571 0.944,-20.13333 1.4649,-30.71289 0.5208,-10.57928 1.0742,-21.25635 1.6601,-32.03125 0.5859,-10.77456 1.1719,-21.19121 1.7578,-31.25 0.5859,-10.05838 1.1393,-19.5473 1.6602,-28.4668 0.5208,-8.91903 1.0091,-16.79662 1.4648,-23.63281 0.065,-1.56224 0.5208,-2.91315 1.3672,-4.05273 0.8463,-1.13907 1.9368,-2.05052 3.2715,-2.73438 1.3346,-0.68333 2.832,-1.18789 4.4922,-1.51367 1.6601,-0.32526 3.3365,-0.48802 5.0293,-0.48828 3.9062,2.6e-4 8.0077,1.04193 12.3047,3.125 z"
           style="font-size:400px;font-family:Gabriola;-inkscape-font-specification:Gabriola"
           id="path4684" />
      </g>
      <g
         transform="matrix(1.5142323,0,0,1.5142323,-102.8876,-316.73511)"
         id="g4245">
        <g
           id="g4239"
           transform="translate(-33.571429,-194.28571)">
          <rect
             ry="7.8571429"
             y="676.55139"
             x="407.23407"
             height="125.53303"
             width="165.46884"
             id="rect4197"
             style="fill:#ffffff;fill-opacity:0.47058824;stroke:url(#radialGradient4384);stroke-width:9.99996948;stroke-linecap:square;stroke-linejoin:miter;stroke-miterlimit:4;stroke-opacity:1;stroke-dasharray:none;stroke-dashoffset:0" />
          <path
             sodipodi:nodetypes="ccccccccccsscsccscscscccscsscssscssscsscscs"
             inkscape:connector-curvature="0"
             id="path4151"
             d="m 402.23399,739.31792 5.71429,-59.90937 82.02022,-7.85714 82.0202,6.42857 5.71429,61.33794 -3.57143,62.0522 -84.16306,5.71429 -82.02022,-6.42857 z m 161.01739,57.61352 c -0.22803,-0.36903 -58.36165,-50.7755 -58.55922,-50.7755 -0.11937,0 -3.03275,2.44589 -6.47418,5.43534 -3.44144,2.98945 -6.35045,5.45352 -6.4645,5.47571 -0.11403,0.0222 -3.12598,-2.47753 -6.69321,-5.55496 l -6.48587,-5.59532 -0.43824,0.40392 c -0.24103,0.22217 -13.45378,11.58941 -29.36169,25.26051 -15.9079,13.67111 -29.07905,25.00342 -29.26919,25.1829 -0.33715,0.31827 1.43859,0.32635 71.74931,0.32635 43.06899,0 72.05546,-0.0639 71.99679,-0.15895 z m -121.62239,-32.5701 c 15.98145,-13.74807 29.07133,-25.04648 29.08861,-25.10762 0.0234,-0.0827 -53.61292,-46.30536 -57.78406,-49.79713 l -0.70781,-0.59255 0,50.35386 c 0,33.0843 0.0594,50.31715 0.17303,50.24687 0.0952,-0.0588 13.24876,-11.35538 29.23023,-25.10343 z m 125.86378,-49.03603 -0.0444,-23.90493 -27.43348,23.84235 c -15.0884,13.11329 -27.43345,23.90619 -27.43345,23.98421 0,0.078 12.34505,10.87027 27.43345,23.98276 l 27.43348,23.84087 0.0444,-23.92016 c 0.0245,-13.15608 0.0245,-34.67739 0,-47.8251 z m -39.93504,-2.66596 35.70164,-31.02625 -36.00238,-0.0443 c -19.8013,-0.0244 -52.17147,-0.0244 -71.93372,0 l -35.93134,0.0443 36.07709,31.06289 c 19.84242,17.08458 36.14685,31.0464 36.2321,31.02624 0.0853,-0.0201 16.22069,-13.99844 35.85661,-31.06288 z"
             style="fill:#000000" />
        </g>
        <g
           id="g3810"
           transform="matrix(0.97255815,0.76672464,-0.76672464,0.97255815,560.30375,-230.50236)"
           style="fill:url(#radialGradient4402);fill-opacity:1;stroke:#000000;stroke-width:6.45973444;stroke-miterlimit:4;stroke-opacity:1;stroke-dasharray:none">
          <g
             style="fill:url(#radialGradient4396);fill-opacity:1;stroke:#000000;stroke-width:6.45973444;stroke-miterlimit:4;stroke-opacity:1;stroke-dasharray:none"
             id="g3792">
            <path
               style="fill:url(#radialGradient4386);fill-opacity:1;stroke:#000000;stroke-width:6.45973444;stroke-linecap:square;stroke-linejoin:miter;stroke-miterlimit:4;stroke-opacity:1;stroke-dasharray:none;stroke-dashoffset:0"
               d="m 265.79031,547.11322 c 1.5478,10.03948 -24.82564,21.35348 -34.86512,22.90128 -8.2929,1.27854 -13.67558,-3.57676 -16.16982,-10.96327 -0.52531,-1.55567 -4.27574,-2.70666 -4.54502,-4.45324 -0.25647,-1.66357 2.97244,-3.81105 2.98917,-5.38082 0.0843,-7.90364 3.74467,-14.26751 12.12058,-15.55884 10.03948,-1.5478 38.92241,3.41541 40.47021,13.45489 z"
               id="path3773"
               inkscape:connector-curvature="0"
               sodipodi:nodetypes="sssssss"
               inkscape:transform-center-x="35.333566"
               inkscape:transform-center-y="6.9370784" />
            <path
               inkscape:transform-center-x="17.713408"
               sodipodi:nodetypes="sssssss"
               inkscape:connector-curvature="0"
               id="path3784"
               d="m 269.12904,538.19425 c -9.23657,4.22759 -27.31545,-18.05961 -31.54305,-27.29618 -3.49211,-7.62968 -0.28918,-14.13263 6.13687,-18.54711 1.35339,-0.92974 1.43772,-4.8519 3.04462,-5.58738 1.53053,-0.70053 4.47733,1.82017 5.99213,1.40808 7.62691,-2.07482 14.74791,-0.28911 18.27498,7.41694 4.22759,9.23657 7.33103,38.37805 -1.90555,42.60565 z"
               style="fill:url(#radialGradient4388);fill-opacity:1;stroke:#000000;stroke-width:6.45973444;stroke-linecap:square;stroke-linejoin:miter;stroke-miterlimit:4;stroke-opacity:1;stroke-dasharray:none;stroke-dashoffset:0"
               inkscape:transform-center-y="-32.18135" />
            <path
               inkscape:transform-center-y="-25.077442"
               style="fill:url(#radialGradient4390);fill-opacity:1;stroke:#000000;stroke-width:6.45973444;stroke-linecap:square;stroke-linejoin:miter;stroke-miterlimit:4;stroke-opacity:1;stroke-dasharray:none;stroke-dashoffset:0"
               d="m 278.65693,539.00627 c -6.53866,-7.77384 10.11725,-31.14361 17.8911,-37.68228 6.42142,-5.40112 13.5432,-4.04926 19.51212,0.96607 1.25713,1.05628 5.05962,0.0911 6.19715,1.44355 1.08349,1.28815 -0.55965,4.80065 0.24166,6.15061 4.03447,6.79689 4.21336,14.13619 -2.27234,19.59138 -7.77385,6.53865 -35.03102,17.30453 -41.56969,9.53067 z"
               id="path3786"
               inkscape:connector-curvature="0"
               sodipodi:nodetypes="sssssss"
               inkscape:transform-center-x="-27.898409" />
            <path
               inkscape:transform-center-x="-31.023446"
               sodipodi:nodetypes="sssssss"
               inkscape:connector-curvature="0"
               id="path3788"
               d="m 280.63146,547.93996 c 5.19184,-8.73106 32.73857,-0.68476 41.46965,4.50708 7.21211,4.28862 8.27694,11.45893 5.50293,18.74497 -0.58423,1.53453 1.57747,4.8083 0.67423,6.32724 -0.8603,1.44677 -4.71776,1.04985 -5.72921,2.25045 -5.09255,6.04489 -11.965,8.62688 -19.24931,4.29534 -8.73106,-5.19184 -27.86014,-27.394 -22.66829,-36.12508 z"
               style="fill:url(#radialGradient4392);fill-opacity:1;stroke:#000000;stroke-width:6.45973444;stroke-linecap:square;stroke-linejoin:miter;stroke-miterlimit:4;stroke-opacity:1;stroke-dasharray:none;stroke-dashoffset:0"
               inkscape:transform-center-y="20.282887" />
            <path
               inkscape:transform-center-y="35.325287"
               style="fill:url(#radialGradient4394);fill-opacity:1;stroke:#000000;stroke-width:6.45973444;stroke-linecap:square;stroke-linejoin:miter;stroke-miterlimit:4;stroke-opacity:1;stroke-dasharray:none;stroke-dashoffset:0"
               d="m 272.99312,552.75034 c 9.98941,1.8435 11.99054,30.47147 10.14705,40.46089 -1.52279,8.25154 -7.87944,11.7358 -15.67532,11.65935 -1.6419,-0.0161 -3.96338,3.14638 -5.70125,2.82566 -1.65528,-0.30547 -2.62009,-4.06136 -4.09685,-4.59394 -7.43535,-2.68147 -12.23947,-8.23284 -10.70145,-16.56697 1.84349,-9.98941 16.0384,-35.62848 26.02782,-33.78499 z"
               id="path3790"
               inkscape:connector-curvature="0"
               sodipodi:nodetypes="sssssss"
               inkscape:transform-center-x="8.1425775" />
          </g>
          <path
             transform="matrix(0.38512452,0,0,0.38512452,131.15128,332.80152)"
             d="m 386.42856,550.75507 c 0,10.15809 -8.23476,18.39285 -18.39285,18.39285 -10.1581,0 -18.39286,-8.23476 -18.39286,-18.39285 0,-10.1581 8.23476,-18.39286 18.39286,-18.39286 10.15809,0 18.39285,8.23476 18.39285,18.39286 z"
             sodipodi:ry="18.392857"
             sodipodi:rx="18.392857"
             sodipodi:cy="550.75507"
             sodipodi:cx="368.03571"
             id="path3771"
             style="fill:url(#radialGradient4398);fill-opacity:1;stroke:url(#radialGradient4400);stroke-width:16.77310753;stroke-linecap:square;stroke-linejoin:miter;stroke-miterlimit:4;stroke-opacity:1;stroke-dasharray:none;stroke-dashoffset:0"
             sodipodi:type="arc" />
        </g>
      </g>
    </g>
  </g>
</svg>
